<svg xmlns="http://www.w3.org/2000/svg" viewBox="0 0 62.36 14.17"><defs><style>.a{fill:#131313;}.b{fill:#ddd;}</style></defs><rect class="a" width="62.36" height="14.17" rx="1.98"/><path class="b" d="M145.8,393.17a1.37,1.37,0,0,0-.49-1.12,5.26,5.26,0,0,0-1.83-.79,6.31,6.31,0,0,1-1.93-.81,2,2,0,0,1-.06-3.22,3.3,3.3,0,0,1,2.06-.61,3.43,3.43,0,0,1,1.52.33,2.5,2.5,0,0,1,1,.91,2.47,2.47,0,0,1,.37,1.31h-.73a1.79,1.79,0,0,0-.6-1.41,2.34,2.34,0,0,0-1.6-.53,2.49,2.49,0,0,0-1.56.44,1.35,1.35,0,0,0-.58,1.14,1.28,1.28,0,0,0,.52,1.06,4.72,4.72,0,0,0,1.67.72,7.4,7.4,0,0,1,1.74.66,2.41,2.41,0,0,1,.89.8,2,2,0,0,1,.3,1.11,1.94,1.94,0,0,1-.81,1.62,3.44,3.44,0,0,1-2.12.61,4.05,4.05,0,0,1-1.65-.33,2.45,2.45,0,0,1-1.15-.9,2.34,2.34,0,0,1-.39-1.33h.72a1.69,1.69,0,0,0,.68,1.42,2.82,2.82,0,0,0,1.79.53,2.68,2.68,0,0,0,1.6-.44A1.4,1.4,0,0,0,145.8,393.17Z" transform="translate(-138.9 -384.09)"/><path class="b" d="M151.92,395.27a3.44,3.44,0,0,1-.13-.89,2.44,2.44,0,0,1-.94.74,2.85,2.85,0,0,1-1.21.27,2.11,2.11,0,0,1-1.48-.51,1.66,1.66,0,0,1-.57-1.29,1.71,1.71,0,0,1,.77-1.47,3.72,3.72,0,0,1,2.15-.54h1.27v-.72a1.39,1.39,0,0,0-.42-1.07,1.74,1.74,0,0,0-1.22-.39,1.9,1.9,0,0,0-1.21.38,1.11,1.11,0,0,0-.48.9h-.71a1.64,1.64,0,0,1,.71-1.31,2.74,2.74,0,0,1,1.72-.55,2.51,2.51,0,0,1,1.68.53,1.89,1.89,0,0,1,.63,1.48v3a3.76,3.76,0,0,0,.19,1.38v.07Zm-2.2-.51a2.28,2.28,0,0,0,1.25-.34,2,2,0,0,0,.81-.9v-1.4h-1.25a3.12,3.12,0,0,0-1.64.39,1.13,1.13,0,0,0-.6,1,1.14,1.14,0,0,0,.4.88A1.46,1.46,0,0,0,149.72,394.76Z" transform="translate(-138.9 -384.09)"/><path class="b" d="M156.27,394.26l1.85-5.33h.76l-2.71,7.42-.14.32a1.71,1.71,0,0,1-1.61,1.16,2.14,2.14,0,0,1-.54-.08v-.58l.37,0a1.28,1.28,0,0,0,.83-.25,2,2,0,0,0,.54-.88l.31-.85-2.39-6.29h.77Z" transform="translate(-138.9 -384.09)"/><path class="b" d="M168.6,387.35h-2.93v7.92H165v-7.92H162v-.61h6.57Z" transform="translate(-138.9 -384.09)"/><path class="b" d="M170.51,390a2.47,2.47,0,0,1,.88-.88,2.29,2.29,0,0,1,1.18-.31,1.9,1.9,0,0,1,1.52.58,2.56,2.56,0,0,1,.5,1.72v4.16h-.7V391.1a1.88,1.88,0,0,0-.36-1.26,1.39,1.39,0,0,0-1.13-.42,1.78,1.78,0,0,0-1.15.41,2.34,2.34,0,0,0-.74,1.1v4.34h-.7v-9h.7Z" transform="translate(-138.9 -384.09)"/><path class="b" d="M180.4,395.27a3.37,3.37,0,0,1-.14-.89,2.37,2.37,0,0,1-.94.74,2.78,2.78,0,0,1-1.21.27,2.13,2.13,0,0,1-1.48-.51,1.78,1.78,0,0,1,.21-2.76,3.69,3.69,0,0,1,2.15-.54h1.27v-.72a1.39,1.39,0,0,0-.42-1.07,1.74,1.74,0,0,0-1.22-.39,1.93,1.93,0,0,0-1.22.38,1.11,1.11,0,0,0-.48.9h-.7a1.63,1.63,0,0,1,.7-1.31,2.77,2.77,0,0,1,1.73-.55,2.46,2.46,0,0,1,1.67.53,1.89,1.89,0,0,1,.63,1.48v3a3.72,3.72,0,0,0,.2,1.38v.07Zm-2.21-.51a2.33,2.33,0,0,0,1.26-.34,2,2,0,0,0,.81-.9v-1.4H179a3.15,3.15,0,0,0-1.64.39,1.14,1.14,0,0,0-.59,1,1.11,1.11,0,0,0,.4.88A1.44,1.44,0,0,0,178.19,394.76Z" transform="translate(-138.9 -384.09)"/><path class="b" d="M183.49,388.93l0,1.08a2.47,2.47,0,0,1,.9-.89,2.23,2.23,0,0,1,1.17-.31,1.88,1.88,0,0,1,1.52.58,2.56,2.56,0,0,1,.5,1.72v4.16h-.69V391.1a2,2,0,0,0-.36-1.26,1.42,1.42,0,0,0-1.14-.42,1.8,1.8,0,0,0-1.15.41,2.41,2.41,0,0,0-.74,1.1v4.34h-.7v-6.34Z" transform="translate(-138.9 -384.09)"/><path class="b" d="M190.92,392.07l-.8.78v2.42h-.7v-9h.7V392l.66-.72,2.43-2.38h.88l-2.69,2.67,2.93,3.67h-.84Z" transform="translate(-138.9 -384.09)"/><path class="b" d="M199.09,393.66a1,1,0,0,0-.42-.84,3.26,3.26,0,0,0-1.26-.5,5.35,5.35,0,0,1-1.31-.41,1.72,1.72,0,0,1-.69-.56,1.41,1.41,0,0,1-.23-.81,1.51,1.51,0,0,1,.63-1.24,2.5,2.5,0,0,1,1.6-.49,2.63,2.63,0,0,1,1.71.53,1.69,1.69,0,0,1,.64,1.36h-.71a1.11,1.11,0,0,0-.46-.92,2.1,2.1,0,0,0-2.29-.06.94.94,0,0,0-.42.8.87.87,0,0,0,.35.73,3.68,3.68,0,0,0,1.27.48,6,6,0,0,1,1.39.46,1.9,1.9,0,0,1,.68.59,1.63,1.63,0,0,1-.43,2.12,2.69,2.69,0,0,1-1.69.49,2.83,2.83,0,0,1-1.79-.54,1.65,1.65,0,0,1-.69-1.36h.7a1.23,1.23,0,0,0,.52,1,2.11,2.11,0,0,0,1.26.34,2,2,0,0,0,1.19-.32A1,1,0,0,0,199.09,393.66Z" transform="translate(-138.9 -384.09)"/></svg>